<svg xmlns="http://www.w3.org/2000/svg" xmlns:xlink="http://www.w3.org/1999/xlink" viewBox="0 0 848 128"><defs><style>.a,.c,.e{fill:none;}.a{clip-path:url(#b);}.b{fill:#314454;}.c{stroke:#314454;stroke-width:8px;}.d{stroke:none;}</style><clipPath id="b"><rect width="848" height="128"/></clipPath></defs><g id="a" class="a"><g transform="translate(-67 -65)"><path class="b" d="M13.5-14.7A20.109,20.109,0,0,0,20-8.2a14.51,14.51,0,0,0,7.4,2.1q7.1,0,10.35-3.75T41-21.7v-37H13.5v-7H49.3V-21a32.883,32.883,0,0,1-1.1,8.65A18.016,18.016,0,0,1,44.55-5.3a17.561,17.561,0,0,1-6.7,4.75A26.429,26.429,0,0,1,27.6,1.2,24.17,24.17,0,0,1,16.75-1.4,20.844,20.844,0,0,1,8.1-9.7Z" transform="translate(101 164)"/><g class="c" transform="translate(67 65)"><rect class="d" width="128" height="128"/><rect class="e" x="4" y="4" width="120" height="120"/></g></g><g transform="translate(53 -65)"><path class="b" d="M39.7-26.7l-3.1-10q-1.7-5.5-3.3-10.95T30.1-58.8h-.4q-1.6,5.7-3.2,11.15T23.2-36.7l-3.1,10ZM41.8-20H18L11.7,0H3.2L25.3-65.6h9.4L56.8,0H48Z" transform="translate(101 164)"/><g class="c" transform="translate(67 65)"><rect class="d" width="128" height="128"/><rect class="e" x="4" y="4" width="120" height="120"/></g></g><g transform="translate(173 -65)"><path class="b" d="M18.3-34.5H29.2q7.7,0,11.75-3.15T45-47.2q0-6.5-4.05-9.1T29.2-58.9H18.3ZM45.8,0,30-27.7H18.3V0H10V-65.6H30.4a41.71,41.71,0,0,1,9.2.95,19.646,19.646,0,0,1,7.25,3.15,14.958,14.958,0,0,1,4.75,5.7,19.579,19.579,0,0,1,1.7,8.6q0,7.7-4,12.3a20.387,20.387,0,0,1-10.7,6.3L55.3,0Z" transform="translate(101 164)"/><g class="c" transform="translate(67 65)"><rect class="d" width="128" height="128"/><rect class="e" x="4" y="4" width="120" height="120"/></g></g><g transform="translate(293 -65)"><path class="b" d="M9.5-7.1H25.8V-58.6H9.5v-7h41v7H34.2V-7.1H50.5V0H9.5Z" transform="translate(101 164)"/><g class="c" transform="translate(67 65)"><rect class="d" width="128" height="128"/><rect class="e" x="4" y="4" width="120" height="120"/></g></g><path class="b" d="M1158,1137H1030V1009h128v128Zm-63.6-67.8h.3c.334,1.934.7,3.919,1.1,5.9.4,2,.836,3.982,1.3,5.9l7.5,27.5h9.2l9.7-65.7h-7.9l-5,41.2c-.2,2.7-.433,5.424-.7,8.1-.264,2.646-.5,5.371-.7,8.1h-.4q-1.1-4.1-2.15-8.149c-.694-2.674-1.35-5.383-1.95-8.051l-6.9-24.2h-5.9L1085,1084c-.667,2.733-1.356,5.458-2.05,8.1q-1.05,4-2.15,8.1h-.3c-.2-2.735-.453-5.443-.75-8.05-.3-2.623-.517-5.366-.65-8.15l-5.3-41.2h-8.3l10.1,65.7h9l7.2-27.5c.529-1.917,1-3.9,1.4-5.9s.8-3.966,1.2-5.9Z" transform="translate(-550 -1009)"/><path class="b" d="M1158,1137H1030V1009h128v128Zm-83.251-95.845v68.268h43.187v-7.389H1083.49v-24.767h28.2v-7.389h-28.2V1048.44h33.4v-7.285h-42.145Z" transform="translate(-430 -1009)"/><path class="b" d="M1158,1137H1030V1009h128v128Zm-84.5-95.845v68.268h20.293a41.168,41.168,0,0,0,10.458-1.248,23.787,23.787,0,0,0,8.117-3.746,17.326,17.326,0,0,0,5.255-6.244,19.4,19.4,0,0,0,1.873-8.741c0-4.7-1.4-8.441-4.162-11.135s-6.683-4.444-11.656-5.2v-.416a14.874,14.874,0,0,0,11.968-14.881,15.941,15.941,0,0,0-1.717-7.648,13.979,13.979,0,0,0-4.788-5.151,22.334,22.334,0,0,0-7.389-2.915,45.222,45.222,0,0,0-9.521-.937H1073.5Zm19.043,61.4h-10.3v-25.808h10.3c6.007,0,10.629,1,13.737,2.966s4.683,5.1,4.683,9.314c0,4.626-1.611,8.075-4.787,10.25S1098.412,1102.554,1092.543,1102.554Zm-1.769-32.26h-8.533v-22.27h8.95c5.248,0,9.257.823,11.915,2.445s4.007,4.336,4.007,8.065c0,3.8-1.278,6.739-3.8,8.741S1096.574,1070.295,1090.774,1070.295Z" transform="translate(-310 -1009)"/></g></svg>